<?xml version="1.0" encoding="UTF-8" standalone="no"?>
<!-- Created with Inkscape (http://www.inkscape.org/) -->

<svg
   version="1.1"
   id="svg1"
   width="880"
   height="880"
   viewBox="0 0 880 880"
   sodipodi:docname="torch-clipart-publicdomainvectors.org.svg"
   inkscape:version="1.3.2 (091e20e, 2023-11-25, custom)"
   xmlns:inkscape="http://www.inkscape.org/namespaces/inkscape"
   xmlns:sodipodi="http://sodipodi.sourceforge.net/DTD/sodipodi-0.dtd"
   xmlns="http://www.w3.org/2000/svg"
   xmlns:svg="http://www.w3.org/2000/svg">
  <defs
     id="defs1">
    <clipPath
       clipPathUnits="userSpaceOnUse"
       id="clipPath4">
      <path
         d="M 0,660 H 660 V 0 H 0 Z"
         transform="translate(-330.46881,-180.37701)"
         id="path4" />
    </clipPath>
    <clipPath
       clipPathUnits="userSpaceOnUse"
       id="clipPath6">
      <path
         d="M 0,660 H 660 V 0 H 0 Z"
         transform="translate(-192.61041,-131.6455)"
         id="path6" />
    </clipPath>
    <clipPath
       clipPathUnits="userSpaceOnUse"
       id="clipPath8">
      <path
         d="M 0,660 H 660 V 0 H 0 Z"
         transform="translate(-185.3398,-204.9688)"
         id="path8" />
    </clipPath>
    <clipPath
       clipPathUnits="userSpaceOnUse"
       id="clipPath10">
      <path
         d="M 0,660 H 660 V 0 H 0 Z"
         transform="translate(-185.3398,-204.9688)"
         id="path10" />
    </clipPath>
    <clipPath
       clipPathUnits="userSpaceOnUse"
       id="clipPath12">
      <path
         d="M 0,660 H 660 V 0 H 0 Z"
         transform="translate(-185.3398,-204.9688)"
         id="path12" />
    </clipPath>
    <clipPath
       clipPathUnits="userSpaceOnUse"
       id="clipPath14">
      <path
         d="M 0,660 H 660 V 0 H 0 Z"
         transform="translate(-192.61041,-131.6455)"
         id="path14" />
    </clipPath>
    <clipPath
       clipPathUnits="userSpaceOnUse"
       id="clipPath16">
      <path
         d="M 0,660 H 660 V 0 H 0 Z"
         transform="translate(-295.459,-132.7422)"
         id="path16" />
    </clipPath>
    <clipPath
       clipPathUnits="userSpaceOnUse"
       id="clipPath18">
      <path
         d="M 0,660 H 660 V 0 H 0 Z"
         transform="translate(-386.00001,-204.7354)"
         id="path18" />
    </clipPath>
    <clipPath
       clipPathUnits="userSpaceOnUse"
       id="clipPath20">
      <path
         d="M 0,660 H 660 V 0 H 0 Z"
         transform="translate(-370.17971,-133.5381)"
         id="path20" />
    </clipPath>
    <clipPath
       clipPathUnits="userSpaceOnUse"
       id="clipPath22">
      <path
         d="M 0,660 H 660 V 0 H 0 Z"
         transform="translate(-191.77641,-140.06931)"
         id="path22" />
    </clipPath>
    <clipPath
       clipPathUnits="userSpaceOnUse"
       id="clipPath24">
      <path
         d="M 0,660 H 660 V 0 H 0 Z"
         transform="translate(-200.53171,-141.2412)"
         id="path24" />
    </clipPath>
    <clipPath
       clipPathUnits="userSpaceOnUse"
       id="clipPath26">
      <path
         d="M 0,660 H 660 V 0 H 0 Z"
         transform="translate(-253.65631,-172.51761)"
         id="path26" />
    </clipPath>
    <clipPath
       clipPathUnits="userSpaceOnUse"
       id="clipPath28">
      <path
         d="M 0,660 H 660 V 0 H 0 Z"
         transform="translate(-226.71531,-115.05861)"
         id="path28" />
    </clipPath>
    <clipPath
       clipPathUnits="userSpaceOnUse"
       id="clipPath30">
      <path
         d="M 0,660 H 660 V 0 H 0 Z"
         transform="translate(-226.71531,-115.05861)"
         id="path30" />
    </clipPath>
    <clipPath
       clipPathUnits="userSpaceOnUse"
       id="clipPath32">
      <path
         d="M 0,660 H 660 V 0 H 0 Z"
         transform="translate(-226.71531,-115.05861)"
         id="path32" />
    </clipPath>
    <clipPath
       clipPathUnits="userSpaceOnUse"
       id="clipPath34">
      <path
         d="M 0,660 H 660 V 0 H 0 Z"
         transform="translate(-238.91161,-108.8535)"
         id="path34" />
    </clipPath>
    <clipPath
       clipPathUnits="userSpaceOnUse"
       id="clipPath36">
      <path
         d="M 0,660 H 660 V 0 H 0 Z"
         transform="translate(-236.77491,-218.60161)"
         id="path36" />
    </clipPath>
    <clipPath
       clipPathUnits="userSpaceOnUse"
       id="clipPath38">
      <path
         d="M 0,660 H 660 V 0 H 0 Z"
         transform="translate(-236.77491,-218.60161)"
         id="path38" />
    </clipPath>
    <clipPath
       clipPathUnits="userSpaceOnUse"
       id="clipPath40">
      <path
         d="M 0,660 H 660 V 0 H 0 Z"
         transform="translate(-295.5508,-218.60161)"
         id="path40" />
    </clipPath>
    <clipPath
       clipPathUnits="userSpaceOnUse"
       id="clipPath42">
      <path
         d="M 0,660 H 660 V 0 H 0 Z"
         transform="translate(-326.02291,-218.96881)"
         id="path42" />
    </clipPath>
    <clipPath
       clipPathUnits="userSpaceOnUse"
       id="clipPath44">
      <path
         d="M 0,660 H 660 V 0 H 0 Z"
         transform="translate(-304.55371,-341.25341)"
         id="path44" />
    </clipPath>
    <clipPath
       clipPathUnits="userSpaceOnUse"
       id="clipPath46">
      <path
         d="M 0,660 H 660 V 0 H 0 Z"
         transform="translate(-396.06251,-447.97171)"
         id="path46" />
    </clipPath>
    <clipPath
       clipPathUnits="userSpaceOnUse"
       id="clipPath48">
      <path
         d="M 0,660 H 660 V 0 H 0 Z"
         transform="translate(-411.93751,-453.47121)"
         id="path48" />
    </clipPath>
    <clipPath
       clipPathUnits="userSpaceOnUse"
       id="clipPath50">
      <path
         d="M 0,660 H 660 V 0 H 0 Z"
         transform="translate(-423.39161,-453.61041)"
         id="path50" />
    </clipPath>
    <clipPath
       clipPathUnits="userSpaceOnUse"
       id="clipPath52">
      <path
         d="M 0,660 H 660 V 0 H 0 Z"
         transform="translate(-292.01511,-360.38431)"
         id="path52" />
    </clipPath>
    <clipPath
       clipPathUnits="userSpaceOnUse"
       id="clipPath54">
      <path
         d="M 0,660 H 660 V 0 H 0 Z"
         transform="translate(-285.07761,-368.59911)"
         id="path54" />
    </clipPath>
    <clipPath
       clipPathUnits="userSpaceOnUse"
       id="clipPath56">
      <path
         d="M 0,660 H 660 V 0 H 0 Z"
         transform="translate(-318.92431,-508.95361)"
         id="path56" />
    </clipPath>
    <clipPath
       clipPathUnits="userSpaceOnUse"
       id="clipPath58">
      <path
         d="M 0,660 H 660 V 0 H 0 Z"
         transform="translate(-303.04931,-515.63092)"
         id="path58" />
    </clipPath>
    <clipPath
       clipPathUnits="userSpaceOnUse"
       id="clipPath60">
      <path
         d="M 0,660 H 660 V 0 H 0 Z"
         transform="translate(-291.5947,-517.82861)"
         id="path60" />
    </clipPath>
  </defs>
  <sodipodi:namedview
     id="namedview1"
     pagecolor="#ffffff"
     bordercolor="#000000"
     borderopacity="0.25"
     inkscape:showpageshadow="2"
     inkscape:pageopacity="0.0"
     inkscape:pagecheckerboard="0"
     inkscape:deskcolor="#d1d1d1"
     inkscape:zoom="0.67272727"
     inkscape:cx="439.25676"
     inkscape:cy="440"
     inkscape:window-width="1440"
     inkscape:window-height="830"
     inkscape:window-x="-6"
     inkscape:window-y="-6"
     inkscape:window-maximized="1"
     inkscape:current-layer="g1">
    <inkscape:page
       x="0"
       y="0"
       inkscape:label="1"
       id="page1"
       width="880"
       height="880"
       margin="0 0 1.5066667"
       bleed="0" />
  </sodipodi:namedview>
  <g
     id="g1"
     inkscape:groupmode="layer"
     inkscape:label="1">
    <g
       id="group-MC0">
      <path
         id="path2"
         d="M 0,0 H 660 V 658.87 H 0 Z"
         style="fill:#2c2423;fill-opacity:1;fill-rule:nonzero;stroke:none"
         transform="matrix(1.3333333,0,0,-1.3333333,0,880)" />
      <path
         id="path3"
         d="m 0,0 c 120.383,0 218.567,98.187 218.567,218.569 0,120.383 -98.184,218.568 -218.567,218.568 -120.383,0 -218.568,-98.185 -218.568,-218.568 C -218.568,98.187 -120.383,0 0,0"
         style="fill:#514643;fill-opacity:1;fill-rule:evenodd;stroke:none"
         transform="matrix(1.3333333,0,0,-1.3333333,440.62507,639.49733)"
         clip-path="url(#clipPath4)" />
      <path
         id="path5"
         d="M 0,0 -7.271,73.323 0.856,86.778 265.968,87.868 277.941,72.992 275.376,2.937 265.113,-15.587 14.966,-16.67 Z"
         style="fill:#b2a29e;fill-opacity:1;fill-rule:evenodd;stroke:none"
         transform="matrix(1.3333333,0,0,-1.3333333,256.81387,704.47267)"
         clip-path="url(#clipPath6)" />
      <path
         id="path7"
         d="M 0,0 285.212,-0.331 273.238,14.545 8.126,13.455 Z"
         style="fill:#d7c9c4;fill-opacity:1;fill-rule:evenodd;stroke:none"
         transform="matrix(1.3333333,0,0,-1.3333333,247.11973,606.70827)"
         clip-path="url(#clipPath8)" />
      <path
         id="path9"
         d="M 0,0 13.257,8.393 265.543,9.844 285.212,-0.331 273.238,14.545 8.126,13.455 Z"
         style="fill:#e8dbd7;fill-opacity:1;fill-rule:evenodd;stroke:none"
         transform="matrix(1.3333333,0,0,-1.3333333,247.11973,606.70827)"
         clip-path="url(#clipPath10)" />
      <path
         id="path11"
         d="m 0,0 204.712,-11.962 -35.351,-49.547 -162.09,-11.814 14.965,-16.67 250.148,1.083 10.262,18.523 2.566,70.056 z"
         style="fill:#9d8c87;fill-opacity:1;fill-rule:evenodd;stroke:none"
         transform="matrix(1.3333333,0,0,-1.3333333,247.11973,606.70827)"
         clip-path="url(#clipPath12)" />
      <path
         id="path13"
         d="M 0,0 275.376,2.937 265.113,-15.587 14.966,-16.67 Z"
         style="fill:#8f807c;fill-opacity:1;fill-rule:evenodd;stroke:none"
         transform="matrix(1.3333333,0,0,-1.3333333,256.81387,704.47267)"
         clip-path="url(#clipPath14)" />
      <path
         id="path15"
         d="m 0,0 30.778,-4.112 -5.79,-7.105 -112.871,-6.55 250.148,1.083 10.262,18.524 z"
         style="fill:#766864;fill-opacity:1;fill-rule:evenodd;stroke:none"
         transform="matrix(1.3333333,0,0,-1.3333333,393.94533,703.0104)"
         clip-path="url(#clipPath16)" />
      <path
         id="path17"
         d="m 0,0 63.07,-6.193 -20.24,-56.14 -71.277,-8.998 110.433,1.178 2.566,70.055 z"
         style="fill:#8c7c78;fill-opacity:1;fill-rule:evenodd;stroke:none"
         transform="matrix(1.3333333,0,0,-1.3333333,514.66667,607.01947)"
         clip-path="url(#clipPath18)" />
      <path
         id="path19"
         d="m 0,0 87.874,-2.987 -4.918,-10.05 -116.093,-4.966 120.681,0.524 10.263,18.523 z"
         style="fill:#5c4d4a;fill-opacity:1;fill-rule:evenodd;stroke:none"
         transform="matrix(1.3333333,0,0,-1.3333333,493.57293,701.9492)"
         clip-path="url(#clipPath20)" />
      <path
         id="path21"
         d="M 0,0 5.761,33.03 130.193,39.444 -6.437,64.9 Z"
         style="fill:#9d8c87;fill-opacity:1;fill-rule:evenodd;stroke:none"
         transform="matrix(1.3333333,0,0,-1.3333333,255.70187,693.24093)"
         clip-path="url(#clipPath22)" />
      <path
         id="path23"
         d="M 0,0 2.565,24.376 125.715,31.645 111.177,7.697 Z"
         style="fill:#c3b6b2;fill-opacity:1;fill-rule:evenodd;stroke:none"
         transform="matrix(1.3333333,0,0,-1.3333333,267.3756,691.6784)"
         clip-path="url(#clipPath24)" />
      <path
         id="path25"
         d="m 0,0 -7.157,-31.49 17.958,0.429 13.898,33.993 z"
         style="fill:#b2a29e;fill-opacity:1;fill-rule:evenodd;stroke:none"
         transform="matrix(1.3333333,0,0,-1.3333333,338.2084,649.97653)"
         clip-path="url(#clipPath26)" />
      <path
         id="path27"
         d="m 0,0 29.939,-45.547 73.12,-31.215 69.138,23.924 33.484,53.727 z"
         style="fill:#766864;fill-opacity:1;fill-rule:evenodd;stroke:none"
         transform="matrix(1.3333333,0,0,-1.3333333,302.28707,726.58853)"
         clip-path="url(#clipPath28)" />
      <path
         id="path29"
         d="m 0,0 120.38,-11.338 5.558,-25.227 -17.959,-24.374 -51.16,3.918 46.24,-19.741 69.138,23.924 33.484,53.727 z"
         style="fill:#695a58;fill-opacity:1;fill-rule:evenodd;stroke:none"
         transform="matrix(1.3333333,0,0,-1.3333333,302.28707,726.58853)"
         clip-path="url(#clipPath30)" />
      <path
         id="path31"
         d="m 0,0 174.042,-8.346 -9.194,-29.506 -59.436,-28.005 -31.733,1.639 29.38,-12.544 69.138,23.924 33.484,53.727 z"
         style="fill:#574a48;fill-opacity:1;fill-rule:evenodd;stroke:none"
         transform="matrix(1.3333333,0,0,-1.3333333,302.28707,726.58853)"
         clip-path="url(#clipPath32)" />
      <path
         id="path33"
         d="m 0,0 17.746,-31.645 40.408,-12.828 40.194,8.553 2.353,26.296 z"
         style="fill:#8f807c;fill-opacity:1;fill-rule:evenodd;stroke:none"
         transform="matrix(1.3333333,0,0,-1.3333333,318.5488,734.862)"
         clip-path="url(#clipPath34)" />
      <path
         id="path35"
         d="m 0,0 c -5.282,69.113 28.226,99.438 86.801,104.693 10.071,56.56 -18.336,98.09 -81.244,126.143 39.007,36.58 91.269,53.787 159.925,47.036 -24.523,-10.871 -36.628,-30.607 -37.202,-58.581 63.429,-13.31 96.495,-53.254 94.926,-123.577 C 186.727,70.25 164.577,41.06 185.153,0.76 123.435,0.507 61.717,0.253 0,0"
         style="fill:#f68413;fill-opacity:1;fill-rule:evenodd;stroke:none"
         transform="matrix(1.3333333,0,0,-1.3333333,315.69987,588.5312)"
         clip-path="url(#clipPath36)" />
      <path
         id="path37"
         d="M 0,0 C -5.282,69.113 28.226,99.438 86.801,104.693 28.525,92.58 10.1,54.37 16.252,0.066 Z m 197.284,182.323 c 17.898,-20.75 26.753,-49.432 25.922,-86.609 C 186.727,70.25 164.577,41.06 185.153,0.76 L 162.92,0.67 c -11.247,39.518 2.264,74.909 45.752,105.307 4.475,26.628 0.095,51.995 -11.388,76.346"
         style="fill:#ef6d17;fill-opacity:1;fill-rule:evenodd;stroke:none"
         transform="matrix(1.3333333,0,0,-1.3333333,315.69987,588.5312)"
         clip-path="url(#clipPath38)" />
      <path
         id="path39"
         d="m 0,0 c -2.494,64.736 9.052,83.303 36.711,88.228 21.408,63.089 -2.362,128.518 -47.343,145.519 25.261,19.726 60.627,31.568 82.784,34.224 C 60.574,257.789 48.443,234.598 55.868,207.969 85.819,195.5 123.24,161.081 118.652,109.748 101.426,85.897 71.725,59.839 87.428,0.713 58.284,0.476 29.142,0.236 0,0"
         style="fill:#fab40a;fill-opacity:1;fill-rule:evenodd;stroke:none"
         transform="matrix(1.3333333,0,0,-1.3333333,394.06773,588.5312)"
         clip-path="url(#clipPath40)" />
      <path
         id="path41"
         d="m 0,0 c -2.077,39.552 1.315,72.074 23.211,80.808 11.663,35.063 14.853,70.125 2.565,105.189 C 51.01,171.956 68.678,150.726 71.103,115.016 26.785,99.254 15.274,39.547 36.906,0.182 24.604,0.121 12.302,0.061 0,0"
         style="fill:#f9de1c;fill-opacity:1;fill-rule:evenodd;stroke:none"
         transform="matrix(1.3333333,0,0,-1.3333333,434.6972,588.0416)"
         clip-path="url(#clipPath42)" />
      <path
         id="path43"
         d="M 0,0 C -6.743,47.372 -29.172,68.369 -75.685,65.851 -84.018,47.235 -82.714,27.244 -73.89,16.653 -51.009,23.487 -20.193,21.419 0,0"
         style="fill:#f68413;fill-opacity:1;fill-rule:evenodd;stroke:none"
         transform="matrix(1.3333333,0,0,-1.3333333,406.0716,424.99547)"
         clip-path="url(#clipPath44)" />
      <path
         id="path45"
         d="M 0,0 C 3.525,29.421 33.916,56.458 79.534,72.875 62.272,26.432 57.926,-5.633 60.719,-47.494 43.435,-19.146 22.697,-3.865 0,0"
         style="fill:#f68413;fill-opacity:1;fill-rule:evenodd;stroke:none"
         transform="matrix(1.3333333,0,0,-1.3333333,528.08333,282.7044)"
         clip-path="url(#clipPath46)" />
      <path
         id="path47"
         d="M 0,0 C 11.124,-4.084 21.002,-10.409 29.734,-18.21 30.959,0.809 34.201,18.699 39.519,37.449 22.966,28.213 6.853,15.556 0,0"
         style="fill:#fab40a;fill-opacity:1;fill-rule:evenodd;stroke:none"
         transform="matrix(1.3333333,0,0,-1.3333333,549.25,275.37173)"
         clip-path="url(#clipPath48)" />
      <path
         id="path49"
         d="M 0,0 C 5.278,-1.937 9.964,-4.937 14.106,-8.638 14.687,0.384 16.225,8.87 18.747,17.764 10.897,13.382 3.252,7.38 0,0"
         style="fill:#f9de1c;fill-opacity:1;fill-rule:evenodd;stroke:none"
         transform="matrix(1.3333333,0,0,-1.3333333,564.52213,275.18613)"
         clip-path="url(#clipPath50)" />
      <path
         id="path51"
         d="M 0,0 C -3.775,21.163 -16.334,31.882 -42.376,33.988 -47.041,26.43 -46.312,17.608 -41.371,12.372 -28.559,13.78 -11.307,10.751 0,0"
         style="fill:#fab40a;fill-opacity:1;fill-rule:evenodd;stroke:none"
         transform="matrix(1.3333333,0,0,-1.3333333,389.35347,399.4876)"
         clip-path="url(#clipPath52)" />
      <path
         id="path53"
         d="m 0,0 c -1.879,10.534 -8.13,15.87 -21.093,16.919 -2.323,-3.762 -1.96,-8.155 0.5,-10.761 C -14.217,6.858 -5.629,5.351 0,0"
         style="fill:#f9de1c;fill-opacity:1;fill-rule:evenodd;stroke:none"
         transform="matrix(1.3333333,0,0,-1.3333333,380.10347,388.53453)"
         clip-path="url(#clipPath54)" />
      <path
         id="path55"
         d="M 0,0 C -9.511,30.835 -33.916,44.87 -79.534,64.48 -62.272,29.522 -57.926,6.776 -60.719,-21.366 -44.694,-8.913 -24.287,-3.255 0,0"
         style="fill:#f68413;fill-opacity:1;fill-rule:evenodd;stroke:none"
         transform="matrix(1.3333333,0,0,-1.3333333,425.2324,201.3952)"
         clip-path="url(#clipPath56)" />
      <path
         id="path57"
         d="M 0,0 C -11.125,-0.753 -21.002,-3.268 -29.733,-7.005 -30.958,6.237 -34.202,19.077 -39.518,32.888 -22.966,23.528 -6.854,11.908 0,0"
         style="fill:#fab40a;fill-opacity:1;fill-rule:evenodd;stroke:none"
         transform="matrix(1.3333333,0,0,-1.3333333,404.06573,192.49213)"
         clip-path="url(#clipPath58)" />
      <path
         id="path59"
         d="M 0,0 C -5.278,-0.356 -9.963,-1.55 -14.106,-3.324 -14.686,2.959 -16.224,9.05 -18.747,15.602 -10.896,11.161 -3.251,5.648 0,0"
         style="fill:#f9de1c;fill-opacity:1;fill-rule:evenodd;stroke:none"
         transform="matrix(1.3333333,0,0,-1.3333333,388.79293,189.56187)"
         clip-path="url(#clipPath60)" />
    </g>
  </g>
</svg>
